<svg width="845" height="241" viewBox="0 0 845 241" fill="none" xmlns="http://www.w3.org/2000/svg">
<g opacity="0.5" filter="url(#filter0_ddiif_391_199)">
<path fill-rule="evenodd" clip-rule="evenodd" d="M222.28 209.333L171.067 183.754L171.017 183.642L154.643 146.84L154.817 146.675L165.354 136.733L20 209.333L121.14 10L222.28 209.333ZM85.8485 148.254L144.665 124.062L121.139 77.0591L85.8485 148.254Z" fill="url(#paint0_radial_391_199)"/>
<path d="M25.5137 96.111L51.9636 122.532V106.273L64.1712 93.4011L25.5137 96.111Z" fill="url(#paint1_radial_391_199)"/>
<path d="M217.445 96.111L190.995 122.532V106.273L178.787 93.4011L217.445 96.111Z" fill="url(#paint2_radial_391_199)"/>
<path d="M121.007 210.354L136.815 176.489L121.52 182.05L105.236 174.994L121.007 210.354Z" fill="url(#paint3_radial_391_199)"/>
</g>
<g filter="url(#filter1_ddii_391_199)">
<path fill-rule="evenodd" clip-rule="evenodd" d="M217.227 204.012L168.735 179.766L168.688 179.66L153.184 144.776L153.349 144.62L163.326 135.197L25.6963 204.012L121.461 15.0688L217.227 204.012ZM88.0453 146.117L143.736 123.186L121.46 78.6326L88.0453 146.117Z" fill="url(#paint4_radial_391_199)"/>
<path d="M30.917 96.6915L55.9612 121.736V106.324L67.5201 94.1228L30.917 96.6915Z" fill="url(#paint5_radial_391_199)"/>
<path d="M212.648 96.6915L187.604 121.736V106.324L176.045 94.1228L212.648 96.6915Z" fill="url(#paint6_radial_391_199)"/>
<path d="M121.335 204.98L136.304 172.88L121.821 178.151L106.403 171.462L121.335 204.98Z" fill="url(#paint7_radial_391_199)"/>
</g>
<path d="M49.8604 157.697L27.3848 202.327L73.6203 179.21" stroke="white" stroke-opacity="0.25" stroke-linecap="round"/>
<path d="M198.201 109.856L211.044 97.3341L191.458 96.0498" stroke="white" stroke-opacity="0.25" stroke-linecap="round"/>
<path d="M256.568 125L295.736 35.4H325.432L364.6 125H333.368L304.44 49.736H316.216L287.288 125H256.568ZM279.864 109.384L287.544 87.624H328.76L336.44 109.384H279.864ZM392.456 125L354.568 35.4H387.08L417.928 111.048H398.6L430.344 35.4H460.04L422.152 125H392.456ZM450.068 125L489.236 35.4H518.932L558.1 125H526.868L497.94 49.736H509.716L480.788 125H450.068ZM473.364 109.384L481.044 87.624H522.26L529.94 109.384H473.364ZM562.921 125V35.4H593.129V101.576H633.577V125H562.921ZM687.647 127.048C680.394 127.048 673.652 125.896 667.423 123.592C661.279 121.288 655.946 118.045 651.423 113.864C646.9 109.597 643.359 104.605 640.799 98.888C638.324 93.1707 637.087 86.9413 637.087 80.2C637.087 73.3733 638.324 67.144 640.799 61.512C643.359 55.7947 646.9 50.8453 651.423 46.664C655.946 42.3973 661.279 39.112 667.423 36.808C673.652 34.504 680.394 33.352 687.647 33.352C694.986 33.352 701.727 34.504 707.871 36.808C714.015 39.112 719.348 42.3973 723.871 46.664C728.394 50.8453 731.892 55.7947 734.367 61.512C736.927 67.144 738.207 73.3733 738.207 80.2C738.207 86.9413 736.927 93.1707 734.367 98.888C731.892 104.605 728.394 109.597 723.871 113.864C719.348 118.045 714.015 121.288 707.871 123.592C701.727 125.896 694.986 127.048 687.647 127.048ZM687.647 102.6C690.463 102.6 693.066 102.088 695.455 101.064C697.93 100.04 700.063 98.5893 701.855 96.712C703.732 94.7493 705.183 92.4027 706.207 89.672C707.231 86.856 707.743 83.6987 707.743 80.2C707.743 76.7013 707.231 73.5867 706.207 70.856C705.183 68.04 703.732 65.6933 701.855 63.816C700.063 61.8533 697.93 60.36 695.455 59.336C693.066 58.312 690.463 57.8 687.647 57.8C684.831 57.8 682.186 58.312 679.711 59.336C677.322 60.36 675.188 61.8533 673.311 63.816C671.519 65.6933 670.111 68.04 669.087 70.856C668.063 73.5867 667.551 76.7013 667.551 80.2C667.551 83.6987 668.063 86.856 669.087 89.672C670.111 92.4027 671.519 94.7493 673.311 96.712C675.188 98.5893 677.322 100.04 679.711 101.064C682.186 102.088 684.831 102.6 687.647 102.6ZM749.171 125V35.4H774.003L819.571 89.928H808.051V35.4H837.491V125H812.659L767.091 70.472H778.611V125H749.171Z" fill="white"/>
<path d="M387.84 210.256C384.64 210.256 381.781 209.531 379.264 208.08C376.789 206.629 374.805 204.624 373.312 202.064C371.861 199.504 371.136 196.581 371.136 193.296C371.136 189.968 371.861 187.045 373.312 184.528C374.805 181.968 376.789 179.963 379.264 178.512C381.781 177.061 384.64 176.336 387.84 176.336C391.04 176.336 393.899 177.061 396.416 178.512C398.933 179.963 400.917 181.968 402.368 184.528C403.819 187.045 404.544 189.968 404.544 193.296C404.544 196.581 403.819 199.504 402.368 202.064C400.917 204.624 398.933 206.629 396.416 208.08C393.899 209.531 391.04 210.256 387.84 210.256ZM387.84 207.376C390.4 207.376 392.704 206.8 394.752 205.648C396.8 204.453 398.4 202.789 399.552 200.656C400.704 198.523 401.28 196.069 401.28 193.296C401.28 190.48 400.704 188.027 399.552 185.936C398.4 183.803 396.8 182.16 394.752 181.008C392.704 179.813 390.4 179.216 387.84 179.216C385.28 179.216 382.976 179.813 380.928 181.008C378.923 182.16 377.323 183.803 376.128 185.936C374.976 188.027 374.4 190.48 374.4 193.296C374.4 196.069 374.976 198.523 376.128 200.656C377.323 202.789 378.923 204.453 380.928 205.648C382.976 206.8 385.28 207.376 387.84 207.376ZM448.391 210V176.592H451.463V185.872L451.015 184.848C452.039 182.203 453.725 180.133 456.071 178.64C458.418 177.104 461.298 176.336 464.712 176.336C467.442 176.336 469.81 176.869 471.816 177.936C473.864 178.96 475.442 180.539 476.551 182.672C477.703 184.763 478.279 187.365 478.279 190.48V210H475.079V190.736C475.079 186.981 474.119 184.123 472.199 182.16C470.322 180.197 467.677 179.216 464.263 179.216C461.661 179.216 459.399 179.749 457.479 180.816C455.559 181.883 454.087 183.376 453.063 185.296C452.082 187.216 451.591 189.52 451.591 192.208V210H448.391ZM525.374 210V162.512H528.574V210H525.374ZM575.981 210V176.592H579.181V210H575.981ZM577.581 168.464C576.856 168.464 576.237 168.208 575.725 167.696C575.213 167.184 574.957 166.587 574.957 165.904C574.957 165.179 575.213 164.56 575.725 164.048C576.237 163.536 576.856 163.28 577.581 163.28C578.349 163.28 578.968 163.536 579.437 164.048C579.949 164.517 580.205 165.115 580.205 165.84C580.205 166.565 579.949 167.184 579.437 167.696C578.968 168.208 578.349 168.464 577.581 168.464ZM626.589 210V176.592H629.661V185.872L629.213 184.848C630.237 182.203 631.922 180.133 634.269 178.64C636.616 177.104 639.496 176.336 642.909 176.336C645.64 176.336 648.008 176.869 650.013 177.936C652.061 178.96 653.64 180.539 654.749 182.672C655.901 184.763 656.477 187.365 656.477 190.48V210H653.277V190.736C653.277 186.981 652.317 184.123 650.397 182.16C648.52 180.197 645.874 179.216 642.461 179.216C639.858 179.216 637.597 179.749 635.677 180.816C633.757 181.883 632.285 183.376 631.261 185.296C630.28 187.216 629.789 189.52 629.789 192.208V210H626.589ZM717.139 210.256C713.769 210.256 710.782 209.531 708.179 208.08C705.619 206.629 703.593 204.624 702.099 202.064C700.649 199.504 699.923 196.581 699.923 193.296C699.923 189.968 700.606 187.045 701.971 184.528C703.379 181.968 705.299 179.963 707.731 178.512C710.163 177.061 712.894 176.336 715.923 176.336C718.953 176.336 721.662 177.04 724.051 178.448C726.483 179.856 728.382 181.84 729.747 184.4C731.155 186.917 731.859 189.84 731.859 193.168C731.859 193.296 731.838 193.445 731.795 193.616C731.795 193.744 731.795 193.893 731.795 194.064H702.291V191.568H730.067L728.787 192.784C728.83 190.181 728.275 187.856 727.123 185.808C726.014 183.717 724.499 182.096 722.579 180.944C720.659 179.749 718.441 179.152 715.923 179.152C713.449 179.152 711.23 179.749 709.267 180.944C707.347 182.096 705.833 183.717 704.723 185.808C703.614 187.856 703.059 190.203 703.059 192.848V193.424C703.059 196.155 703.657 198.587 704.851 200.72C706.089 202.811 707.774 204.453 709.907 205.648C712.041 206.8 714.473 207.376 717.203 207.376C719.337 207.376 721.321 206.992 723.155 206.224C725.033 205.456 726.611 204.283 727.891 202.704L729.747 204.816C728.297 206.608 726.462 207.973 724.243 208.912C722.067 209.808 719.699 210.256 717.139 210.256Z" fill="#909090"/>
<defs>
<filter id="filter0_ddiif_391_199" x="0" y="0" width="242.28" height="240.354" filterUnits="userSpaceOnUse" color-interpolation-filters="sRGB">
<feFlood flood-opacity="0" result="BackgroundImageFix"/>
<feColorMatrix in="SourceAlpha" type="matrix" values="0 0 0 0 0 0 0 0 0 0 0 0 0 0 0 0 0 0 127 0" result="hardAlpha"/>
<feOffset dy="10"/>
<feGaussianBlur stdDeviation="10"/>
<feComposite in2="hardAlpha" operator="out"/>
<feColorMatrix type="matrix" values="0 0 0 0 0 0 0 0 0 0 0 0 0 0 0 0 0 0 0.25 0"/>
<feBlend mode="normal" in2="BackgroundImageFix" result="effect1_dropShadow_391_199"/>
<feColorMatrix in="SourceAlpha" type="matrix" values="0 0 0 0 0 0 0 0 0 0 0 0 0 0 0 0 0 0 127 0" result="hardAlpha"/>
<feOffset dy="10"/>
<feGaussianBlur stdDeviation="10"/>
<feComposite in2="hardAlpha" operator="out"/>
<feColorMatrix type="matrix" values="0 0 0 0 0 0 0 0 0 0 0 0 0 0 0 0 0 0 0.25 0"/>
<feBlend mode="normal" in2="effect1_dropShadow_391_199" result="effect2_dropShadow_391_199"/>
<feBlend mode="normal" in="SourceGraphic" in2="effect2_dropShadow_391_199" result="shape"/>
<feColorMatrix in="SourceAlpha" type="matrix" values="0 0 0 0 0 0 0 0 0 0 0 0 0 0 0 0 0 0 127 0" result="hardAlpha"/>
<feOffset dy="4"/>
<feGaussianBlur stdDeviation="1"/>
<feComposite in2="hardAlpha" operator="arithmetic" k2="-1" k3="1"/>
<feColorMatrix type="matrix" values="0 0 0 0 1 0 0 0 0 1 0 0 0 0 1 0 0 0 0.25 0"/>
<feBlend mode="normal" in2="shape" result="effect3_innerShadow_391_199"/>
<feColorMatrix in="SourceAlpha" type="matrix" values="0 0 0 0 0 0 0 0 0 0 0 0 0 0 0 0 0 0 127 0" result="hardAlpha"/>
<feOffset dy="-10"/>
<feGaussianBlur stdDeviation="7.5"/>
<feComposite in2="hardAlpha" operator="arithmetic" k2="-1" k3="1"/>
<feColorMatrix type="matrix" values="0 0 0 0 0 0 0 0 0 0 0 0 0 0 0 0 0 0 0.4 0"/>
<feBlend mode="normal" in2="effect3_innerShadow_391_199" result="effect4_innerShadow_391_199"/>
<feGaussianBlur stdDeviation="5" result="effect5_foregroundBlur_391_199"/>
</filter>
<filter id="filter1_ddii_391_199" x="5.69629" y="5.06885" width="231.53" height="229.911" filterUnits="userSpaceOnUse" color-interpolation-filters="sRGB">
<feFlood flood-opacity="0" result="BackgroundImageFix"/>
<feColorMatrix in="SourceAlpha" type="matrix" values="0 0 0 0 0 0 0 0 0 0 0 0 0 0 0 0 0 0 127 0" result="hardAlpha"/>
<feOffset dy="10"/>
<feGaussianBlur stdDeviation="10"/>
<feComposite in2="hardAlpha" operator="out"/>
<feColorMatrix type="matrix" values="0 0 0 0 0 0 0 0 0 0 0 0 0 0 0 0 0 0 0.25 0"/>
<feBlend mode="normal" in2="BackgroundImageFix" result="effect1_dropShadow_391_199"/>
<feColorMatrix in="SourceAlpha" type="matrix" values="0 0 0 0 0 0 0 0 0 0 0 0 0 0 0 0 0 0 127 0" result="hardAlpha"/>
<feOffset dy="10"/>
<feGaussianBlur stdDeviation="10"/>
<feComposite in2="hardAlpha" operator="out"/>
<feColorMatrix type="matrix" values="0 0 0 0 0 0 0 0 0 0 0 0 0 0 0 0 0 0 0.25 0"/>
<feBlend mode="normal" in2="effect1_dropShadow_391_199" result="effect2_dropShadow_391_199"/>
<feBlend mode="normal" in="SourceGraphic" in2="effect2_dropShadow_391_199" result="shape"/>
<feColorMatrix in="SourceAlpha" type="matrix" values="0 0 0 0 0 0 0 0 0 0 0 0 0 0 0 0 0 0 127 0" result="hardAlpha"/>
<feOffset dy="4"/>
<feGaussianBlur stdDeviation="1"/>
<feComposite in2="hardAlpha" operator="arithmetic" k2="-1" k3="1"/>
<feColorMatrix type="matrix" values="0 0 0 0 1 0 0 0 0 1 0 0 0 0 1 0 0 0 0.25 0"/>
<feBlend mode="normal" in2="shape" result="effect3_innerShadow_391_199"/>
<feColorMatrix in="SourceAlpha" type="matrix" values="0 0 0 0 0 0 0 0 0 0 0 0 0 0 0 0 0 0 127 0" result="hardAlpha"/>
<feOffset dy="-10"/>
<feGaussianBlur stdDeviation="7.5"/>
<feComposite in2="hardAlpha" operator="arithmetic" k2="-1" k3="1"/>
<feColorMatrix type="matrix" values="0 0 0 0 0 0 0 0 0 0 0 0 0 0 0 0 0 0 0.4 0"/>
<feBlend mode="normal" in2="effect3_innerShadow_391_199" result="effect4_innerShadow_391_199"/>
</filter>
<radialGradient id="paint0_radial_391_199" cx="0" cy="0" r="1" gradientTransform="matrix(-189.896 128.381 -129.615 -191.31 199.133 82.2228)" gradientUnits="userSpaceOnUse">
<stop stop-color="#FEC45A"/>
<stop offset="1"/>
</radialGradient>
<radialGradient id="paint1_radial_391_199" cx="0" cy="0" r="1" gradientTransform="matrix(-189.896 128.381 -129.615 -191.31 199.133 82.2228)" gradientUnits="userSpaceOnUse">
<stop stop-color="#FEC45A"/>
<stop offset="1"/>
</radialGradient>
<radialGradient id="paint2_radial_391_199" cx="0" cy="0" r="1" gradientTransform="matrix(-189.896 128.381 -129.615 -191.31 199.133 82.2228)" gradientUnits="userSpaceOnUse">
<stop stop-color="#FEC45A"/>
<stop offset="1"/>
</radialGradient>
<radialGradient id="paint3_radial_391_199" cx="0" cy="0" r="1" gradientTransform="matrix(-189.896 128.381 -129.615 -191.31 199.133 82.2228)" gradientUnits="userSpaceOnUse">
<stop stop-color="#FEC45A"/>
<stop offset="1"/>
</radialGradient>
<radialGradient id="paint4_radial_391_199" cx="0" cy="0" r="1" gradientUnits="userSpaceOnUse" gradientTransform="translate(195.31 83.5272) rotate(145.91) scale(217.113 218.964)">
<stop stop-color="#FEC45A"/>
<stop offset="1"/>
</radialGradient>
<radialGradient id="paint5_radial_391_199" cx="0" cy="0" r="1" gradientUnits="userSpaceOnUse" gradientTransform="translate(195.31 83.5272) rotate(145.91) scale(217.113 218.964)">
<stop stop-color="#FEC45A"/>
<stop offset="1"/>
</radialGradient>
<radialGradient id="paint6_radial_391_199" cx="0" cy="0" r="1" gradientUnits="userSpaceOnUse" gradientTransform="translate(195.31 83.5272) rotate(145.91) scale(217.113 218.964)">
<stop stop-color="#FEC45A"/>
<stop offset="1"/>
</radialGradient>
<radialGradient id="paint7_radial_391_199" cx="0" cy="0" r="1" gradientUnits="userSpaceOnUse" gradientTransform="translate(195.31 83.5272) rotate(145.91) scale(217.113 218.964)">
<stop stop-color="#FEC45A"/>
<stop offset="1"/>
</radialGradient>
</defs>
</svg>
